<svg width="100%" height="100%" viewBox="0 0 924 256" version="1.1" xmlns="http://www.w3.org/2000/svg" xmlns:xlink="http://www.w3.org/1999/xlink" xml:space="preserve" xmlns:serif="http://www.serif.com/" style="fill-rule:evenodd;clip-rule:evenodd;stroke-linejoin:round;stroke-miterlimit:2;">
    <g transform="matrix(1,0,0,1,-728.034,-302.414)">
        <path d="M829.111,424.351C828.823,423.775 828.535,422.911 827.959,422.911C827.671,422.623 827.095,422.623 826.519,422.335C825.655,422.335 825.367,422.047 825.079,422.047C824.503,422.047 824.215,422.047 822.775,422.623C821.911,422.623 820.471,424.063 819.895,425.215C817.879,428.959 814.135,433.567 812.119,436.735C809.815,439.903 805.783,442.783 803.191,445.087C800.599,447.679 797.719,449.407 794.551,451.135C792.535,452.287 786.487,454.303 784.471,455.167C778.135,457.759 776.695,457.471 774.103,458.047C771.511,458.623 769.207,458.911 762.007,459.487C759.703,459.487 757.687,460.063 755.671,461.215C755.095,461.503 753.943,462.367 753.367,462.943C753.943,466.111 756.247,469.855 757.975,473.311C758.551,475.327 759.127,476.767 759.991,478.783L762.295,484.543C766.615,493.759 771.799,525.151 769.207,534.943C768.343,538.399 767.479,541.855 765.463,545.599C764.599,546.751 762.583,547.903 760.855,548.767C759.991,549.055 759.127,549.055 757.975,548.767C757.399,548.479 757.687,548.767 757.111,547.903C757.111,547.903 756.247,547.039 756.247,546.751C746.743,532.927 747.319,493.471 748.471,479.359C749.335,466.975 751.063,456.031 751.063,443.647C751.063,441.919 751.351,443.359 751.351,441.055C752.791,440.191 752.503,439.903 753.943,439.327C754.807,438.463 763.447,432.703 766.615,429.535C767.479,428.383 767.479,428.671 768.631,427.807C769.783,426.943 770.647,425.791 771.799,424.639L775.255,422.047C776.983,420.895 794.839,398.143 797.431,393.535C803.479,382.303 804.343,387.199 810.103,369.343C813.847,358.687 814.999,350.047 808.375,340.543C806.647,338.239 802.615,336.799 799.735,335.647C793.111,333.055 784.759,335.359 778.711,338.815C771.799,342.847 768.631,346.303 764.887,352.063L757.687,361.855C756.535,363.295 756.535,363.583 755.959,365.599C754.807,369.055 751.351,372.511 749.911,376.831C749.335,379.423 747.895,382.015 746.455,384.607C742.999,392.671 740.983,403.039 737.815,410.527C735.511,416.287 734.359,424.639 733.207,430.399C732.055,435.583 728.599,473.311 728.311,477.631C727.159,496.351 729.463,535.231 737.815,546.751C741.847,552.223 744.439,555.391 751.351,557.119C755.959,558.271 759.703,558.271 763.159,557.407C766.327,556.543 770.647,554.239 772.951,552.223C775.543,549.343 777.271,545.887 778.711,541.855C781.015,535.231 781.591,527.743 781.879,521.695C781.879,517.951 777.559,494.911 775.831,488.863C774.391,485.407 766.615,468.703 766.615,468.127C772.375,468.415 777.559,467.551 786.199,464.095C796.279,459.775 810.391,451.999 814.135,447.391L823.639,435.295C824.503,434.143 825.079,432.415 825.943,431.263L829.111,425.791C829.111,425.215 829.399,424.639 829.111,424.351ZM756.823,412.831C757.111,411.391 757.111,410.527 757.399,409.375C759.127,404.191 757.975,403.327 759.703,398.719L764.023,386.047C766.039,380.575 768.919,373.375 771.223,368.479C773.527,363.871 780.151,353.215 783.895,349.471C785.335,348.031 787.063,346.591 789.079,345.727C794.839,342.559 802.039,342.271 800.887,352.639C799.159,363.871 799.735,362.143 796.279,371.935C795.127,374.527 788.791,384.607 786.775,387.199L771.223,407.647C769.783,410.815 761.719,418.879 759.127,421.471C757.975,422.911 755.095,425.215 753.367,426.367C753.655,422.911 755.959,416.575 756.823,412.831Z" style="fill-rule:nonzero;"/>
        <path d="M871.159,422.911C870.871,422.623 870.295,422.335 870.007,422.047C869.719,422.047 867.703,421.759 867.703,421.759C867.703,421.759 867.415,421.471 866.839,421.471C866.551,421.759 865.975,421.759 865.687,422.047C865.399,422.335 864.823,422.335 864.247,422.623C863.959,423.775 863.383,424.927 863.095,425.791L859.351,433.567L853.591,445.663L850.135,454.015C847.543,459.775 844.087,469.567 841.495,473.887C838.615,478.495 839.479,478.495 838.039,480.799C837.175,482.527 836.599,484.831 835.159,486.559C834.583,487.135 834.007,488.287 833.431,489.151C832.279,490.591 830.839,492.319 829.399,492.319C827.671,492.031 826.519,490.879 825.655,488.575C823.639,482.815 823.927,474.175 824.503,465.823C825.367,451.999 828.535,424.351 834.295,410.239C834.871,409.087 835.159,408.511 835.447,407.359C837.175,403.039 840.055,399.871 835.447,396.127L835.159,395.839C834.295,395.263 833.719,394.399 832.855,394.111C831.415,393.535 824.215,391.231 821.623,392.959C819.031,394.399 815.863,407.647 814.999,411.391C813.559,417.439 811.831,422.911 810.679,428.095C809.239,435.007 808.663,441.055 806.935,449.407C806.647,452.287 806.359,455.743 806.359,458.911C806.071,468.127 805.207,485.407 810.391,492.895C812.407,495.487 813.559,497.503 816.151,499.231L821.623,502.111C825.943,503.839 828.535,504.415 830.839,503.839C833.431,503.551 835.447,502.687 839.191,500.095C840.631,499.231 842.359,494.911 844.375,491.167C845.815,488.575 847.255,485.407 848.695,482.239C850.135,478.783 851.575,475.327 852.727,472.159C854.167,468.703 855.319,465.535 856.471,462.655C858.199,458.047 859.639,454.015 860.215,452.287C861.367,450.271 862.231,448.255 863.095,445.663C863.959,443.647 864.823,441.343 865.687,439.327C868.279,432.703 871.447,426.655 872.023,424.063C872.023,423.775 871.447,423.199 871.159,422.911ZM831.991,377.983L831.991,378.559C832.279,379.135 833.431,379.711 834.295,379.711L834.583,379.423C836.023,379.711 837.175,379.135 838.039,379.423C839.479,379.711 840.919,379.135 842.071,378.271C843.223,377.695 845.239,375.679 845.527,374.527C845.815,373.375 846.103,373.087 846.391,371.935C846.679,370.495 846.391,370.495 846.391,369.343C846.391,367.903 846.103,367.615 846.103,367.039C845.815,366.751 845.815,366.175 845.527,365.311C845.527,365.023 845.527,364.735 845.239,364.159C844.663,363.583 844.951,363.583 844.087,363.007C841.783,361.567 837.751,360.703 836.023,362.719C835.447,362.719 834.007,363.583 833.431,363.871C832.855,363.871 831.991,365.023 831.703,365.887C831.127,367.039 830.839,368.191 830.551,369.343C830.263,370.495 830.263,375.103 830.263,375.967C830.551,376.543 830.839,377.119 831.991,377.983Z" style="fill-rule:nonzero;"/>
        <path d="M966.775,422.335C966.199,421.759 965.047,421.471 963.895,422.047C962.743,422.047 961.879,422.911 961.015,423.487C960.151,424.351 958.999,424.927 958.423,426.079C957.271,427.807 950.935,431.839 949.783,432.991C948.343,434.431 944.023,437.599 939.991,440.479C938.263,441.631 936.535,442.783 935.095,443.359C933.655,444.223 932.503,444.799 931.639,445.087C930.775,438.175 927.319,421.183 916.663,415.423C914.071,414.271 915.511,414.559 912.631,413.983C910.903,413.407 911.191,413.119 908.311,412.831C902.551,411.967 898.519,415.135 894.199,418.015C892.183,419.455 889.015,423.487 886.423,426.655C884.695,428.671 884.119,432.415 882.391,434.143C881.815,430.975 882.967,422.911 883.543,419.167C884.119,414.559 884.983,409.663 885.559,408.799C885.559,408.223 886.135,407.935 886.711,407.359C887.287,406.783 888.439,405.919 890.167,403.903C897.079,395.551 901.111,392.095 908.887,381.439C912.631,376.255 915.223,370.783 917.527,366.463C919.255,363.007 920.119,357.247 921.559,353.215C922.711,350.047 923.863,345.727 924.151,341.407C924.727,335.359 923.863,330.463 920.695,326.719L918.679,323.839C916.663,322.975 918.103,323.551 916.087,321.823C911.767,318.079 901.687,315.487 896.215,318.943C887.287,323.263 881.527,338.239 880.375,341.119L876.631,352.063C873.751,359.551 872.311,372.223 870.007,380.575C866.839,391.519 864.823,412.255 862.807,424.927L861.943,435.295C861.079,449.983 860.503,465.823 860.215,480.511C860.215,484.831 860.503,489.727 862.231,496.639C864.535,502.687 881.815,505.279 881.527,497.791C881.527,490.879 882.391,486.559 883.831,479.359C884.407,475.903 884.119,468.127 885.559,461.791C887.287,453.727 888.727,446.239 891.031,442.495C893.335,434.431 897.655,427.519 904.279,426.367C908.023,425.791 910.039,429.247 912.631,435.583C913.783,437.887 913.783,442.783 914.935,446.239C915.511,448.255 915.799,450.271 916.087,452.287C916.087,455.743 916.663,455.167 914.647,456.895C912.343,458.911 908.023,461.215 904.567,464.383C900.535,468.127 897.367,473.023 896.215,476.767C895.351,480.223 893.623,484.255 893.335,487.999C893.047,492.607 894.199,496.927 896.215,500.671C897.943,504.127 901.111,505.567 906.583,507.871C907.447,508.735 918.103,507.007 923.287,501.247C925.303,500.095 929.047,492.607 929.623,487.999L932.503,474.751C933.367,471.007 933.655,473.311 933.655,464.383C933.655,458.911 933.655,459.487 933.943,457.759C934.231,456.607 935.095,455.455 937.687,453.439L946.039,447.967L956.695,439.903C958.135,438.175 963.031,433.855 964.759,432.127C965.335,430.687 969.079,427.807 969.943,424.351C970.231,423.487 968.791,423.487 966.775,422.335ZM890.455,376.543C891.319,372.223 890.743,372.511 891.607,368.479C895.063,354.943 897.367,344.863 903.991,332.191C905.143,329.887 905.431,329.311 907.159,328.735C911.767,328.447 912.055,334.495 912.919,336.799C915.511,345.439 911.191,354.079 908.311,360.991C907.735,362.719 907.735,363.583 906.871,365.311C905.431,367.615 903.991,370.207 902.263,372.511L895.063,384.031C893.047,386.623 889.591,390.943 886.999,392.671C886.711,389.791 889.879,379.135 890.455,376.543ZM906.295,497.503C905.431,494.335 904.279,491.743 903.991,489.151C903.991,485.983 905.143,482.527 906.007,479.647C906.583,477.919 908.023,474.751 910.039,472.447C912.055,470.431 914.647,468.991 916.087,468.415C916.375,474.751 913.207,495.199 906.295,497.503Z" style="fill-rule:nonzero;"/>
        <path d="M1034.45,420.895C1032.44,421.183 1033.02,420.895 1031.86,422.623L1031,424.351C1024.95,435.583 1020.63,443.647 1013.14,453.727C1011.13,456.607 1009.4,459.487 1007.1,462.367C1005.08,464.959 1002.49,468.415 999.895,472.159C997.303,475.327 993.271,477.919 990.391,480.511C988.087,482.527 985.495,483.391 982.903,483.391C981.175,483.391 979.447,483.967 978.007,483.679C976.279,482.815 971.959,481.375 970.807,478.495C969.655,474.463 967.927,469.279 969.079,462.943C969.367,460.639 969.367,458.335 969.943,456.031C970.519,452.863 971.383,449.695 972.247,447.103C973.111,443.935 973.975,441.343 973.975,440.191C975.127,440.479 976.567,441.055 978.295,441.631C979.159,441.631 980.023,441.919 980.887,441.919C983.191,442.207 986.935,441.343 988.087,441.631C990.391,441.919 992.695,440.191 994.711,438.751C997.015,437.311 999.319,436.159 1000.76,433.567C1002.2,431.263 1003.35,428.959 1004.22,426.943C1005.65,422.335 1006.23,422.335 1005.65,416.863C1005.37,413.983 1005.08,412.255 1003.93,410.239C1002.77,408.511 1001.62,406.495 999.607,405.343C991.543,401.311 984.631,401.599 975.991,405.919C974.839,406.495 973.687,407.359 972.535,408.511C971.095,409.951 969.367,411.391 967.927,413.119C965.911,414.847 956.983,429.247 954.967,437.023C954.103,440.191 953.527,444.511 952.951,447.967C952.375,450.559 951.511,454.591 951.223,457.183C950.935,460.063 950.935,462.943 950.935,465.535C950.647,469.279 951.511,471.871 952.087,475.039C952.951,479.647 954.679,483.679 957.271,487.135C959.863,490.303 962.455,492.607 965.047,493.759C967.063,494.623 969.367,495.199 971.671,495.199C973.975,495.487 976.279,495.487 979.159,495.199C986.935,492.895 991.255,491.167 994.423,488.287C997.015,485.695 1000.76,484.543 1005.37,478.783C1008.53,473.887 1011.99,468.703 1015.16,463.807C1016.6,461.215 1018.9,458.911 1020.06,456.319C1023.51,449.983 1028.41,443.359 1032.15,435.295L1035.61,428.383L1036.18,426.943C1038.2,423.775 1036.76,421.183 1034.45,420.895ZM978.871,424.063C979.447,422.623 979.447,422.623 980.023,420.895C981.175,418.303 983.767,415.999 985.207,414.847C986.647,413.407 989.239,413.119 990.391,413.119C992.119,413.119 993.271,414.271 994.135,415.711C994.423,416.287 994.423,417.151 994.423,417.727C994.423,418.591 994.999,419.455 994.711,420.319C994.711,421.759 994.423,423.487 993.559,425.215C992.695,427.807 991.255,430.399 988.951,431.839C987.223,432.703 984.919,433.567 983.191,433.567C982.327,433.855 980.599,433.279 979.159,432.991C978.007,432.703 976.855,432.127 976.279,431.839C977.431,428.959 978.007,425.791 978.871,424.063Z" style="fill-rule:nonzero;"/>
        <path d="M1109.62,423.199C1107.89,421.759 1107.03,422.047 1105.59,423.199C1105.3,423.487 1105.02,424.063 1105.02,424.639C1103.58,429.247 1100.98,432.991 1099.54,437.599C1098.97,439.903 1090.62,458.047 1089.75,460.351C1088.31,463.807 1083.99,479.071 1082.55,482.527L1079.1,492.031C1077.37,496.351 1070.45,513.055 1069.02,515.071C1068.44,515.935 1067.29,518.815 1065.85,520.255L1064.12,521.983C1063.54,521.983 1062.97,520.255 1062.68,520.543C1058.36,518.239 1062.1,490.015 1063.26,486.271C1063.54,484.831 1065.27,469.855 1065.27,468.415C1067.58,457.759 1072.18,448.831 1069.02,438.751C1066.42,430.975 1062.68,430.975 1056.06,426.943C1054.04,425.791 1044.25,418.879 1043.38,418.879C1043.1,418.591 1042.81,418.303 1042.52,418.015C1043.67,416.575 1045.11,414.271 1046.26,412.255C1047.99,409.375 1049.43,405.919 1049.43,404.479C1049.43,404.479 1049.72,403.615 1050.01,402.751C1050.87,401.311 1051.74,399.295 1052.31,396.703C1053.17,394.111 1053.75,391.519 1053.75,389.215C1053.75,388.351 1053.46,387.775 1053.46,387.199L1053.46,386.623C1052.6,383.455 1050.3,380.863 1046.26,379.999C1044.82,379.711 1043.1,379.711 1041.37,379.999C1040.21,380.287 1039.06,380.575 1037.91,380.863C1036.47,381.151 1035.03,381.727 1033.88,382.303C1031.86,383.167 1029.85,384.031 1028.12,385.759C1026.68,386.911 1025.53,388.639 1024.38,390.079C1023.22,391.807 1022.07,393.535 1021.21,395.263C1020.06,397.567 1019.19,400.159 1018.62,402.751C1017.75,405.919 1017.75,409.375 1018.62,412.543C1019.19,415.423 1020.63,418.303 1023.22,420.607C1027.26,425.503 1031.29,428.383 1035.89,429.823C1037.05,430.399 1037.91,430.687 1038.2,431.263C1041.37,432.703 1044.82,434.431 1047.99,435.871C1048.86,436.447 1047.41,435.007 1049.43,437.311C1050.01,438.175 1050.87,439.039 1051.16,440.479C1052.02,444.223 1051.45,445.375 1051.16,447.103C1051.16,448.831 1050.3,451.423 1049.14,455.455C1047.99,460.351 1047.13,465.535 1045.97,470.431C1044.54,477.919 1042.81,485.119 1041.37,492.607C1040.79,494.623 1040.5,496.063 1040.21,498.079C1039.35,504.703 1039.06,511.327 1039.35,517.951C1039.64,521.695 1040.79,524.287 1042.81,527.455C1043.67,528.319 1044.25,528.895 1044.82,529.759C1047.41,533.215 1046.55,531.775 1050.01,533.503C1055.77,536.383 1063.83,534.655 1069.3,530.623C1073.34,527.743 1075.35,523.135 1077.65,520.831C1079.67,518.527 1079.38,516.223 1080.25,513.919L1109.34,433.279C1109.91,431.839 1110.2,430.111 1110.49,428.383C1111.93,426.655 1110.49,424.063 1109.62,423.199ZM1039.64,408.799C1038.78,410.527 1037.62,412.255 1037.05,413.119L1032.44,409.087C1031.86,408.223 1031,407.359 1030.42,406.207C1029.85,404.767 1029.85,403.327 1029.85,401.887C1029.56,399.871 1030.42,398.431 1031.58,396.127C1032.44,394.687 1033.3,393.247 1034.45,391.807C1035.32,390.943 1036.18,390.367 1037.05,389.503C1037.62,389.215 1038.49,388.639 1039.06,388.351C1041.65,386.911 1042.52,386.335 1043.67,386.623C1044.54,387.199 1045.11,388.063 1045.4,388.927L1045.11,390.079C1044.82,392.383 1045.11,392.959 1045.11,394.111C1044.82,395.551 1044.54,396.991 1043.1,399.871C1042.52,401.311 1041.94,402.751 1041.94,403.903C1041.94,404.479 1040.79,406.495 1039.64,408.799Z" style="fill-rule:nonzero;"/>
        <path d="M1204.09,398.431C1202.65,393.823 1203.8,391.231 1199.77,388.063C1196.02,385.183 1191.41,382.591 1186.52,381.727C1183.35,381.151 1185.65,381.151 1184.79,382.303C1184.5,382.591 1185.94,388.351 1186.23,388.927C1187.1,390.655 1187.38,390.367 1187.67,392.095C1187.96,393.247 1187.96,395.551 1187.96,396.703C1188.54,403.615 1186.81,406.495 1184.79,412.255C1184.21,414.559 1181.05,420.031 1177.02,424.063C1173.27,428.095 1168.66,430.975 1166.65,432.415C1160.31,437.311 1156.86,438.751 1151.38,445.375C1150.23,446.527 1148.21,449.407 1147.35,451.135C1143.89,456.607 1141.88,467.551 1143.32,473.887C1144.18,477.631 1143.89,477.631 1146.78,479.935C1149.08,480.799 1152.25,480.511 1153.69,478.495C1155.13,475.327 1154.26,465.247 1160.31,455.743C1161.75,453.727 1163.77,452.287 1165.5,450.847C1166.65,449.983 1168.95,446.239 1172.12,448.543C1174.13,449.695 1177.02,460.927 1176.44,463.807C1175.58,467.263 1175.58,469.855 1174.13,472.447C1171.83,477.343 1169.82,481.951 1166.65,485.407C1162.9,489.151 1159.45,493.471 1154.84,496.351C1149.37,499.807 1143.32,500.959 1137.56,500.671C1126.62,500.095 1116.25,493.759 1111.35,483.391C1109.91,480.511 1109.34,479.647 1109.05,475.903C1107.32,464.383 1111.93,454.303 1116.82,444.223C1118.26,440.767 1119.99,439.039 1120.57,437.599C1123.16,431.839 1132.66,422.047 1137.27,418.879C1138.71,417.727 1139.29,418.015 1140.44,417.151C1145.91,413.407 1148.21,413.695 1155.13,413.983C1162.04,414.271 1166.93,414.847 1168.66,410.815C1170.39,403.039 1163.19,403.327 1157.72,402.175C1152.82,401.023 1147.64,400.447 1143.61,398.719C1135.83,395.263 1136.12,392.383 1134.68,387.199C1134.1,385.183 1134.39,387.199 1134.1,385.471C1131.22,374.527 1141.3,347.455 1154.55,346.591C1158.58,345.439 1161.46,346.591 1162.62,349.183C1163.77,350.911 1164.06,353.503 1163.77,356.383C1163.77,357.823 1163.19,359.263 1162.9,360.415C1161.75,364.735 1159.16,367.039 1162.9,370.783C1170.1,378.559 1175.29,367.327 1175.58,360.991C1176.15,355.231 1173.56,349.471 1170.68,344.287C1169.82,342.559 1169.24,342.559 1168.09,341.407C1165.21,337.663 1161.46,336.223 1157.43,335.647C1154.26,335.359 1151.96,334.495 1148.79,334.207C1143.61,333.919 1144.47,334.207 1138.71,335.935C1134.39,337.375 1133.24,337.375 1129.78,341.119C1119.13,352.351 1113.37,367.039 1117.98,382.879C1118.26,384.607 1119.41,386.335 1119.99,388.063C1121.14,392.383 1122.58,393.823 1125.46,397.279C1126.62,398.431 1128.06,399.295 1128.92,400.735C1127.77,402.463 1125.46,403.615 1123.45,404.767C1109.05,412.831 1098.68,428.095 1094.07,443.935C1093.5,445.375 1093.5,445.951 1092.63,447.679L1090.04,459.487C1089.46,466.111 1090.04,473.311 1091.77,479.647C1092.06,481.087 1094.07,484.255 1094.65,485.695C1096.38,490.015 1098.97,492.895 1101.85,496.351C1108.76,504.703 1125.46,510.175 1140.44,510.751C1149.94,511.327 1158.58,509.887 1164.06,505.855C1166.07,504.703 1167.22,504.127 1169.24,502.399C1170.68,501.247 1173.27,499.519 1174.13,498.367C1182.78,488.575 1186.23,483.103 1187.67,471.871C1187.96,469.855 1188.25,467.839 1188.54,465.535C1188.82,453.727 1179.89,444.511 1177.59,442.783C1179.61,440.191 1187.67,435.295 1191.13,433.567C1192.86,432.703 1197.17,427.519 1198.33,425.503L1200.92,420.319C1202.36,417.727 1202.65,418.591 1203.22,414.271C1204.09,408.799 1205.53,403.615 1204.09,398.431Z" style="fill-rule:nonzero;"/>
        <path d="M1324.76,421.471C1323.89,421.471 1323.32,422.047 1322.74,422.623C1320.15,425.791 1318.42,428.959 1316.41,432.703C1312.66,441.343 1307.77,451.999 1303.16,460.351C1302.87,460.927 1302.58,461.503 1302.3,462.079C1296.54,473.023 1295.96,471.295 1288.76,480.223C1287.89,481.375 1279.26,488.575 1277.82,488.863C1276.38,489.439 1275.22,490.015 1274.36,490.015C1272.92,490.015 1271.48,489.151 1270.9,488.287C1267.45,482.239 1264.86,468.991 1259.96,465.535C1260.25,464.959 1259.67,465.247 1260.82,464.671C1262.84,463.519 1263.41,463.807 1265.43,462.079C1266.87,460.927 1268.6,460.063 1270.33,458.911C1272.63,457.471 1274.36,455.455 1276.66,454.015C1276.95,454.015 1277.24,453.727 1277.24,453.439L1284.15,446.527C1287.03,442.495 1295.38,431.839 1295.38,425.503C1295.67,422.335 1295.96,418.303 1295.38,415.135C1294.23,408.511 1286.45,407.359 1280.12,408.511C1276.38,409.087 1267.74,415.711 1265.14,418.015C1264.86,418.303 1264.57,418.591 1263.99,418.879C1259.1,423.487 1254.49,429.247 1250.17,435.007C1246.42,439.903 1243.26,445.087 1241.24,450.271C1240.95,449.983 1241.24,447.679 1241.24,447.391C1241.24,447.391 1241.82,441.055 1241.82,439.903C1241.82,437.887 1242.1,436.447 1242.39,435.295C1243.26,431.551 1244.12,429.823 1247.58,424.639C1249.59,421.471 1251.89,418.015 1254.2,415.135C1260.82,406.495 1267.16,392.671 1272.06,382.879C1274.07,378.847 1276.09,375.391 1277.82,371.935C1279.54,367.903 1280.98,363.871 1282.13,359.551C1284.44,351.775 1285.88,343.711 1285.59,335.647C1285.59,328.159 1284.15,320.671 1282.13,313.471C1280.98,310.015 1277.53,306.271 1274.36,304.543C1271.77,302.815 1268.6,303.103 1266.01,302.527C1261.98,301.951 1261.98,303.679 1259.1,305.407C1256.5,307.423 1254.78,307.999 1252.18,310.303C1248.73,313.759 1245.56,319.807 1243.54,324.991C1242.97,326.143 1242.97,325.855 1242.68,326.719C1240.66,332.191 1239.8,336.799 1237.5,342.271C1234.62,349.183 1233.75,356.671 1231.74,363.871C1229.43,373.375 1228.86,384.607 1227.13,393.535C1226.26,397.855 1225.69,401.023 1225.4,405.631C1224.54,419.455 1218.78,445.951 1219.64,459.199C1219.64,461.503 1220.21,462.655 1219.64,466.111C1218.2,476.767 1219.35,475.039 1218.78,479.071C1218.49,485.119 1217.91,497.215 1217.62,503.263C1217.34,509.023 1224.82,513.919 1227.99,513.055C1229.14,513.055 1229.72,514.207 1232.6,512.767C1233.46,512.191 1234.04,512.191 1234.62,511.903C1234.9,511.903 1235.77,510.463 1235.77,510.175C1236.63,508.159 1237.5,504.703 1237.5,502.687C1239.8,481.951 1239.22,480.511 1241.53,469.855C1242.1,470.143 1244.69,473.599 1244.98,474.463C1247.86,478.495 1249.3,485.983 1255.35,492.031C1258.81,495.487 1260.82,498.367 1264.28,499.231C1266.87,500.095 1271.77,501.247 1275.22,500.095C1276.95,499.807 1278.39,499.231 1280.12,498.943C1282.13,498.079 1286.45,494.623 1290.2,491.455C1294.23,488.287 1297.98,483.679 1299.41,481.663C1301.72,478.207 1306.9,471.583 1309.21,467.263C1310.36,465.247 1311.51,462.943 1312.66,460.927C1314.97,457.183 1316.41,453.439 1318.13,449.407C1319,447.103 1320.15,444.799 1321.02,442.495C1321.59,441.055 1326.78,430.111 1327.64,426.367C1328.5,421.759 1326.2,421.183 1324.76,421.471ZM1247.29,392.671C1247.58,390.367 1248.15,386.911 1248.44,384.607C1250.45,369.919 1251.03,353.503 1256.21,339.103C1257.08,337.375 1256.79,336.799 1257.08,335.647C1257.08,335.071 1257.65,334.207 1257.65,333.055C1257.65,330.463 1259.67,327.007 1260.82,324.703C1261.98,322.111 1262.55,321.247 1263.99,318.943L1265.72,315.199C1266.58,314.335 1267.45,314.047 1268.31,313.759C1269.75,313.471 1271.19,314.047 1271.77,316.063C1272.92,319.807 1273.21,322.111 1274.07,327.007C1274.93,330.463 1274.36,331.039 1274.36,334.207C1274.36,347.455 1270.62,357.535 1265.72,369.631C1265.43,370.495 1265.14,371.359 1264.57,371.935L1252.47,396.703C1251.61,398.143 1251.61,398.431 1251.03,399.871C1250.17,401.023 1249.88,401.311 1249.3,402.751C1248.15,404.767 1247,406.207 1245.56,407.935C1244.98,406.783 1246.71,395.839 1247.29,392.671ZM1251.61,455.743C1252.47,453.439 1251.89,452.575 1253.05,450.559C1257.08,443.359 1252.18,449.407 1261.98,437.023C1265.14,432.991 1261.4,436.447 1268.6,429.247C1269.17,428.671 1270.62,426.943 1272.34,424.927C1274.07,423.199 1276.09,421.759 1277.53,420.319C1278.97,419.455 1280.41,418.591 1281.27,418.879C1281.56,419.167 1281.56,418.879 1281.85,419.167C1282.13,419.167 1282.42,419.167 1282.42,419.455C1283,419.743 1283,420.607 1283,421.183C1283,422.335 1282.13,423.775 1281.85,425.215C1280.98,428.383 1274.65,438.751 1272.92,441.055L1269.75,445.087C1263.13,451.999 1260.54,455.167 1251.61,455.743Z" style="fill-rule:nonzero;"/>
        <path d="M1398.78,423.199C1397.05,421.759 1396.18,422.047 1394.74,423.199C1394.45,423.487 1394.17,424.063 1394.17,424.639C1392.73,429.247 1390.13,432.991 1388.69,437.599C1388.12,439.903 1379.77,458.047 1378.9,460.351C1377.46,463.807 1373.14,479.071 1371.7,482.527L1368.25,492.031C1366.52,496.351 1359.61,513.055 1358.17,515.071C1357.59,515.935 1356.44,518.815 1355,520.255L1353.27,521.983C1352.69,521.983 1352.12,520.255 1351.83,520.543C1347.51,518.239 1351.26,490.015 1352.41,486.271C1352.69,484.831 1354.42,469.855 1354.42,468.415C1356.73,457.759 1361.34,448.831 1358.17,438.751C1355.58,430.975 1351.83,430.975 1345.21,426.943C1343.19,425.791 1333.4,418.879 1332.54,418.879C1332.25,418.591 1331.96,418.303 1331.67,418.015C1332.82,416.575 1334.26,414.271 1335.41,412.255C1337.14,409.375 1338.58,405.919 1338.58,404.479C1338.58,404.479 1338.87,403.615 1339.16,402.751C1340.02,401.311 1340.89,399.295 1341.46,396.703C1342.33,394.111 1342.9,391.519 1342.9,389.215C1342.9,388.351 1342.62,387.775 1342.62,387.199L1342.62,386.623C1341.75,383.455 1339.45,380.863 1335.41,379.999C1333.98,379.711 1332.25,379.711 1330.52,379.999C1329.37,380.287 1328.21,380.575 1327.06,380.863C1325.62,381.151 1324.18,381.727 1323.03,382.303C1321.02,383.167 1319,384.031 1317.27,385.759C1315.83,386.911 1314.68,388.639 1313.53,390.079C1312.38,391.807 1311.22,393.535 1310.36,395.263C1309.21,397.567 1308.34,400.159 1307.77,402.751C1306.9,405.919 1306.9,409.375 1307.77,412.543C1308.34,415.423 1309.78,418.303 1312.38,420.607C1316.41,425.503 1320.44,428.383 1325.05,429.823C1326.2,430.399 1327.06,430.687 1327.35,431.263C1330.52,432.703 1333.98,434.431 1337.14,435.871C1338.01,436.447 1336.57,435.007 1338.58,437.311C1339.16,438.175 1340.02,439.039 1340.31,440.479C1341.17,444.223 1340.6,445.375 1340.31,447.103C1340.31,448.831 1339.45,451.423 1338.3,455.455C1337.14,460.351 1336.28,465.535 1335.13,470.431C1333.69,477.919 1331.96,485.119 1330.52,492.607C1329.94,494.623 1329.65,496.063 1329.37,498.079C1328.5,504.703 1328.21,511.327 1328.5,517.951C1328.79,521.695 1329.94,524.287 1331.96,527.455C1332.82,528.319 1333.4,528.895 1333.98,529.759C1336.57,533.215 1335.7,531.775 1339.16,533.503C1344.92,536.383 1352.98,534.655 1358.45,530.623C1362.49,527.743 1364.5,523.135 1366.81,520.831C1368.82,518.527 1368.54,516.223 1369.4,513.919L1398.49,433.279C1399.06,431.839 1399.35,430.111 1399.64,428.383C1401.08,426.655 1399.64,424.063 1398.78,423.199ZM1328.79,408.799C1327.93,410.527 1326.78,412.255 1326.2,413.119L1321.59,409.087C1321.02,408.223 1320.15,407.359 1319.58,406.207C1319,404.767 1319,403.327 1319,401.887C1318.71,399.871 1319.58,398.431 1320.73,396.127C1321.59,394.687 1322.45,393.247 1323.61,391.807C1324.47,390.943 1325.34,390.367 1326.2,389.503C1326.78,389.215 1327.64,388.639 1328.21,388.351C1330.81,386.911 1331.67,386.335 1332.82,386.623C1333.69,387.199 1334.26,388.063 1334.55,388.927L1334.26,390.079C1333.98,392.383 1334.26,392.959 1334.26,394.111C1333.98,395.551 1333.69,396.991 1332.25,399.871C1331.67,401.311 1331.1,402.751 1331.1,403.903C1331.1,404.479 1329.94,406.495 1328.79,408.799Z" style="fill-rule:nonzero;"/>
        <path d="M1490.93,421.759C1489.78,422.335 1489.78,422.047 1489.21,422.911L1480.28,445.663C1479.13,449.983 1475.96,455.455 1474.23,459.487L1466.45,477.343C1464.44,481.087 1460.12,487.999 1455.22,493.471C1451.77,497.215 1448.31,500.095 1445.43,500.959C1439.67,493.183 1442.55,476.767 1444.57,468.991C1448.02,456.895 1450.04,444.511 1452.92,432.127C1454.36,427.519 1454.65,423.775 1456.38,419.167C1456.95,418.015 1457.53,415.711 1458.1,413.695C1458.39,411.967 1459.54,409.087 1459.54,407.647C1459.54,406.495 1459.26,405.055 1458.1,404.479C1457.24,403.615 1456.95,402.463 1456.09,401.599C1454.07,399.871 1453.21,399.295 1451.48,398.719C1449.75,397.855 1448.02,398.143 1446.58,398.431C1445.43,398.719 1444.57,399.007 1443.41,400.447C1442.84,401.311 1441.69,404.767 1441.4,405.631L1441.11,406.783C1435.06,405.055 1437.37,405.919 1430.45,405.055C1423.83,405.055 1414.9,405.631 1408.57,407.935C1406.26,409.087 1405.4,409.951 1403.67,411.103C1396.76,415.135 1394.45,419.167 1389.56,426.655C1384.95,433.855 1380.92,451.711 1380.92,458.335C1380.92,463.519 1381.78,467.551 1383.8,471.295C1386.97,477.055 1385.82,477.055 1391.29,479.359C1395.89,481.375 1401.94,481.663 1406.84,477.631L1426.71,453.727C1428.44,451.423 1426.42,452.863 1428.44,451.711L1424.98,469.567C1423.83,479.935 1422.39,492.895 1427.58,502.111C1429.59,505.855 1436.79,511.327 1441.11,511.327C1448.31,511.327 1453.78,508.159 1458.97,502.975C1460.69,501.247 1463.29,498.655 1464.44,496.639L1472.21,484.831L1480.28,466.399C1481.72,464.095 1481.43,463.231 1482.87,460.351C1484.02,457.471 1489.21,447.103 1489.5,444.223C1489.78,442.783 1493.24,432.703 1494.97,428.959C1495.26,428.095 1495.54,427.231 1495.83,426.943C1495.54,422.623 1494.68,422.047 1490.93,421.759ZM1429.3,432.127C1427.58,436.159 1420.66,443.647 1417.78,449.119C1416.92,451.423 1416.63,450.559 1415.48,452.287L1413.17,455.743C1411.74,457.759 1412.02,457.183 1410.3,458.623C1408.28,460.639 1404.82,467.263 1398.78,469.279C1397.91,466.399 1398.78,468.415 1398.49,466.687C1397.91,456.319 1402.23,446.239 1406.84,436.447C1410.58,428.671 1415.19,414.847 1425.27,413.407C1431.61,413.119 1433.05,413.695 1437.65,418.015C1436.79,421.759 1431.89,426.655 1429.3,432.127Z" style="fill-rule:nonzero;"/>
        <path d="M1577.91,424.351C1577.62,423.775 1577.34,422.911 1576.76,422.911C1576.47,422.623 1575.89,422.623 1575.32,422.335C1574.45,422.335 1574.17,422.047 1573.88,422.047C1573.3,422.047 1573.02,422.047 1571.58,422.623C1570.71,422.623 1569.27,424.063 1568.69,425.215C1566.68,428.959 1562.93,433.567 1560.92,436.735C1558.62,439.903 1554.58,442.783 1551.99,445.087C1549.4,447.679 1546.52,449.407 1543.35,451.135C1541.34,452.287 1535.29,454.303 1533.27,455.167C1526.93,457.759 1525.5,457.471 1522.9,458.047C1520.31,458.623 1518.01,458.911 1510.81,459.487C1508.5,459.487 1506.49,460.063 1504.47,461.215C1503.89,461.503 1502.74,462.367 1502.17,462.943C1502.74,466.111 1505.05,469.855 1506.78,473.311C1507.35,475.327 1507.93,476.767 1508.79,478.783L1511.1,484.543C1515.41,493.759 1520.6,525.151 1518.01,534.943C1517.14,538.399 1516.28,541.855 1514.26,545.599C1513.4,546.751 1511.38,547.903 1509.65,548.767C1508.79,549.055 1507.93,549.055 1506.78,548.767C1506.2,548.479 1506.49,548.767 1505.91,547.903C1505.91,547.903 1505.05,547.039 1505.05,546.751C1495.54,532.927 1496.12,493.471 1497.27,479.359C1498.13,466.975 1499.86,456.031 1499.86,443.647C1499.86,441.919 1500.15,443.359 1500.15,441.055C1501.59,440.191 1501.3,439.903 1502.74,439.327C1503.61,438.463 1512.25,432.703 1515.41,429.535C1516.28,428.383 1516.28,428.671 1517.43,427.807C1518.58,426.943 1519.45,425.791 1520.6,424.639L1524.06,422.047C1525.78,420.895 1543.64,398.143 1546.23,393.535C1552.28,382.303 1553.14,387.199 1558.9,369.343C1562.65,358.687 1563.8,350.047 1557.17,340.543C1555.45,338.239 1551.41,336.799 1548.54,335.647C1541.91,333.055 1533.56,335.359 1527.51,338.815C1520.6,342.847 1517.43,346.303 1513.69,352.063L1506.49,361.855C1505.34,363.295 1505.34,363.583 1504.76,365.599C1503.61,369.055 1500.15,372.511 1498.71,376.831C1498.13,379.423 1496.69,382.015 1495.26,384.607C1491.8,392.671 1489.78,403.039 1486.62,410.527C1484.31,416.287 1483.16,424.639 1482.01,430.399C1480.86,435.583 1477.4,473.311 1477.11,477.631C1475.96,496.351 1478.26,535.231 1486.62,546.751C1490.65,552.223 1493.24,555.391 1500.15,557.119C1504.76,558.271 1508.5,558.271 1511.96,557.407C1515.13,556.543 1519.45,554.239 1521.75,552.223C1524.34,549.343 1526.07,545.887 1527.51,541.855C1529.82,535.231 1530.39,527.743 1530.68,521.695C1530.68,517.951 1526.36,494.911 1524.63,488.863C1523.19,485.407 1515.41,468.703 1515.41,468.127C1521.17,468.415 1526.36,467.551 1535,464.095C1545.08,459.775 1559.19,451.999 1562.93,447.391L1572.44,435.295C1573.3,434.143 1573.88,432.415 1574.74,431.263L1577.91,425.791C1577.91,425.215 1578.2,424.639 1577.91,424.351ZM1505.62,412.831C1505.91,411.391 1505.91,410.527 1506.2,409.375C1507.93,404.191 1506.78,403.327 1508.5,398.719L1512.82,386.047C1514.84,380.575 1517.72,373.375 1520.02,368.479C1522.33,363.871 1528.95,353.215 1532.69,349.471C1534.13,348.031 1535.86,346.591 1537.88,345.727C1543.64,342.559 1550.84,342.271 1549.69,352.639C1547.96,363.871 1548.54,362.143 1545.08,371.935C1543.93,374.527 1537.59,384.607 1535.58,387.199L1520.02,407.647C1518.58,410.815 1510.52,418.879 1507.93,421.471C1506.78,422.911 1503.89,425.215 1502.17,426.367C1502.45,422.911 1504.76,416.575 1505.62,412.831Z" style="fill-rule:nonzero;"/>
        <path d="M1651.64,424.351C1651.35,422.623 1651.06,422.047 1649.91,421.183C1649.34,420.607 1649.34,419.743 1647.89,420.319C1647.32,420.607 1646.74,421.471 1645.88,422.911L1630.33,451.711L1627.16,456.895L1621.69,468.127L1611.89,486.271C1611.03,487.711 1611.03,487.711 1610.45,489.151C1609.59,491.167 1608.73,493.183 1607.58,494.911C1604.69,500.959 1601.53,505.855 1598.36,510.751C1595.77,515.359 1592.89,518.815 1588.86,523.423C1587.41,525.151 1584.82,526.879 1583.1,526.591C1581.65,526.015 1581.08,524.863 1580.79,523.423C1580.5,521.983 1580.79,520.255 1580.5,519.103C1579.64,509.023 1580.79,483.679 1582.81,475.615L1583.38,471.295C1583.38,469.567 1583.38,469.279 1583.67,467.263C1583.96,464.959 1584.54,462.079 1585.11,459.775C1587.13,447.103 1587.41,444.223 1589.14,432.127C1590.87,419.167 1592.6,406.495 1594.9,393.535L1598.36,369.343C1598.65,367.615 1598.65,367.039 1598.93,366.751C1599.22,365.311 1599.22,364.735 1599.51,364.447C1599.8,364.159 1600.66,364.159 1602.1,364.159L1638.39,360.127C1640.41,359.839 1640.41,359.263 1640.98,357.823L1640.98,355.519C1640.98,355.231 1640.69,354.367 1640.41,353.791C1640.41,353.503 1639.83,352.927 1639.83,352.351L1639.83,351.199C1639.83,350.623 1638.97,350.335 1638.68,350.047C1638.1,348.895 1637.53,348.895 1635.51,349.183C1624.86,350.335 1614.2,351.487 1603.26,352.639C1602.39,352.927 1602.1,353.215 1601.82,352.927C1601.24,352.927 1601.24,352.639 1601.24,351.775C1601.53,348.607 1604.41,336.511 1604.12,333.631C1603.83,331.327 1602.97,329.311 1600.66,328.159C1599.51,327.583 1598.07,326.719 1596.92,326.431C1595.77,326.143 1594.9,325.855 1593.75,325.567C1593.17,325.567 1592.6,325.279 1592.02,324.991L1589.43,324.991C1587.13,324.415 1586.84,324.415 1586.26,325.567C1585.69,326.431 1584.82,331.039 1583.67,336.223C1582.81,341.695 1581.37,349.471 1580.5,354.655C1580.22,355.231 1580.22,355.519 1580.22,355.519C1579.93,355.807 1579.64,355.807 1578.78,355.807C1573.59,356.383 1557.46,358.399 1547.96,360.415C1536.73,362.431 1545.94,368.479 1548.82,369.343C1556.31,371.935 1564.66,369.055 1573.88,367.615C1574.45,367.615 1577.91,367.039 1578.2,367.327C1578.2,367.615 1577.91,367.903 1577.91,369.055C1577.62,369.631 1577.62,370.495 1577.34,371.071C1577.34,371.359 1577.34,371.647 1577.05,371.935C1576.18,376.543 1575.32,384.895 1574.17,390.079L1573.59,392.959C1571.58,403.039 1569.56,414.847 1567.54,426.943C1563.8,448.255 1562.07,461.503 1560.63,479.935C1559.48,490.879 1559.19,500.383 1559.48,507.007C1560.06,514.207 1560.92,520.255 1562.65,524.863C1565.24,531.199 1569.56,536.671 1575.32,539.551C1579.93,542.143 1580.22,541.279 1584.54,540.415C1591.16,539.263 1592.6,536.383 1596.34,532.063C1600.66,526.879 1604.41,521.119 1608.44,513.343C1609.59,511.327 1610.74,508.735 1611.89,506.431C1613.34,502.975 1615.64,499.807 1617.37,496.351C1618.23,494.335 1618.81,492.319 1619.67,490.303C1620.54,488.575 1621.11,486.847 1621.98,485.119C1624.28,479.647 1627.45,475.039 1629.17,470.719C1630.33,468.703 1631.19,466.399 1632.06,464.383C1632.63,463.231 1637.24,455.743 1642.42,445.087C1644.73,440.479 1651.06,428.383 1651.35,427.519C1651.35,426.943 1651.93,425.503 1651.64,424.351Z" style="fill-rule:nonzero;"/>
    </g>
</svg>